<svg width="42" height="41" viewBox="0 0 42 41" fill="none" xmlns="http://www.w3.org/2000/svg">
<path d="M20.9974 0C9.40275 0 0 9.41065 0 21.0196C0 30.3046 6.0165 38.1817 14.364 40.9635C15.414 41.1572 15.7973 40.5082 15.7973 39.9508C15.7973 39.4509 15.7789 38.1294 15.7684 36.376C9.92775 37.6452 8.694 33.5575 8.694 33.5575C7.74113 31.1289 6.363 30.4826 6.363 30.4826C4.45463 29.1793 6.50475 29.2055 6.50475 29.2055C8.61263 29.3546 9.72038 31.3723 9.72038 31.3723C11.5946 34.5834 14.637 33.6569 15.834 33.1178C16.023 31.7596 16.5664 30.8332 17.1675 30.3072C12.5055 29.776 7.602 27.9729 7.602 19.9204C7.602 17.6253 8.421 15.749 9.765 14.2782C9.54713 13.747 8.82788 11.6089 9.96975 8.71715C9.96975 8.71715 11.7337 8.15189 15.7448 10.8709C17.4195 10.4051 19.215 10.1722 21.0026 10.1643C22.785 10.1748 24.5831 10.4051 26.2605 10.8735C30.2689 8.1545 32.0303 8.71977 32.0303 8.71977C33.1748 11.6141 32.4555 13.7496 32.2402 14.2808C33.5869 15.7516 34.398 17.628 34.398 19.923C34.398 27.9964 29.4892 29.7733 24.8115 30.2941C25.5649 30.9431 26.2369 32.2255 26.2369 34.1856C26.2369 36.9962 26.2106 39.2625 26.2106 39.9508C26.2106 40.5134 26.5886 41.1677 27.6544 40.9609C35.9888 38.1765 42 30.302 42 21.0196C42 9.41065 32.5973 0 20.9974 0Z" fill="black"/>
</svg>
