<svg width="42" height="42" viewBox="0 0 42 42" fill="none" xmlns="http://www.w3.org/2000/svg">
<path d="M30.631 0H11.369C5.10004 0 0 5.10004 0 11.369V30.6313C0 36.9 5.10004 42 11.369 42H30.6313C36.9 42 42 36.9 42 30.6313V11.369C42 5.10004 36.9 0 30.631 0ZM39.5378 30.6313C39.5378 35.5423 35.5423 39.5378 30.631 39.5378H11.369C6.45772 39.5378 2.46222 35.5423 2.46222 30.6313V11.369C2.46222 6.45772 6.45772 2.46222 11.369 2.46222H30.6313C35.5423 2.46222 39.5378 6.45772 39.5378 11.369V30.6313Z" fill="#FFFF56"/>
<path d="M21 9.51596C14.6676 9.51596 9.51594 14.6676 9.51594 21C9.51594 27.3324 14.6676 32.4841 21 32.4841C27.3324 32.4841 32.4841 27.3324 32.4841 21C32.4841 14.6676 27.3324 9.51596 21 9.51596ZM21 30.0218C16.0256 30.0218 11.9782 25.9748 11.9782 21C11.9782 16.0256 16.0256 11.9782 21 11.9782C25.9747 11.9782 30.0218 16.0256 30.0218 21C30.0218 25.9748 25.9747 30.0218 21 30.0218Z" fill="#FFFF56"/>
<path d="M32.7587 5.43742C30.8873 5.43742 29.3653 6.9598 29.3653 8.83082C29.3653 10.7022 30.8873 12.2245 32.7587 12.2245C34.63 12.2245 36.1524 10.7022 36.1524 8.83082C36.1524 6.95948 34.63 5.43742 32.7587 5.43742ZM32.7587 9.762C32.2453 9.762 31.8275 9.34416 31.8275 8.83082C31.8275 8.31716 32.2453 7.89964 32.7587 7.89964C33.2723 7.89964 33.6902 8.31716 33.6902 8.83082C33.6902 9.34416 33.2723 9.762 32.7587 9.762Z" fill="#FFFF56"/>
</svg>
