<svg width="18" height="18" viewBox="0 0 18 18" fill="none" xmlns="http://www.w3.org/2000/svg">
<path d="M17.7 0H0.299989C0.134086 0 0 0.134402 0 0.299988V17.7C0 17.8656 0.134086 18 0.299989 18H17.7C17.8659 18 18 17.8656 18 17.7V0.299988C18 0.134402 17.8659 0 17.7 0ZM10.2 13.8C10.2 15.2886 8.98891 16.5 7.5 16.5C6.0111 16.5 4.8 15.2886 4.8 13.8C4.8 13.6344 4.93408 13.5 5.09999 13.5C5.26589 13.5 5.39998 13.6344 5.39998 13.8C5.39998 14.958 6.34227 15.9 7.49997 15.9C8.65767 15.9 9.59996 14.958 9.59996 13.8V6.59999C9.59996 6.4344 9.73405 6.3 9.89995 6.3C10.0659 6.3 10.1999 6.4344 10.1999 6.59999V13.8H10.2ZM13.8 11.1C15.2889 11.1 16.5 12.3114 16.5 13.8C16.5 15.2886 15.2889 16.5 13.8 16.5C12.3111 16.5 11.1 15.2886 11.1 13.8C11.1 13.6344 11.2341 13.5 11.4 13.5C11.5659 13.5 11.7 13.6344 11.7 13.8C11.7 14.958 12.6423 15.9 13.8 15.9C14.9577 15.9 15.9 14.958 15.9 13.8C15.9 12.642 14.9577 11.7 13.8 11.7C12.3111 11.7 11.1 10.4886 11.1 9C11.1 7.51141 12.3111 6.3 13.8 6.3C15.2889 6.3 16.5 7.51141 16.5 9C16.5 9.16559 16.3659 9.29999 16.2 9.29999C16.0341 9.29999 15.9 9.16559 15.9 9C15.9 7.84199 14.9577 6.90001 13.8 6.90001C12.6423 6.90001 11.7 7.84202 11.7 9C11.7 10.158 12.6423 11.1 13.8 11.1Z" fill="#BFBFBF"/>
</svg>
