<svg width="48" height="48" viewBox="0 0 48 48" fill="none" xmlns="http://www.w3.org/2000/svg">
<path d="M6.47999 0C4.72002 0 3.11999 0.64003 1.92 1.84003C0.64003 3.11999 0 4.71993 0 6.39993C0 8.15989 0.719999 9.75992 1.92 10.9599C3.11999 12.1599 4.79999 12.8799 6.40002 12.7999C6.40002 12.7999 6.47999 12.7999 6.56005 12.7999C8.16008 12.7999 9.68004 12.1599 10.88 10.9599C12.08 9.75992 12.8 8.15989 12.8 6.39993C12.88 4.71993 12.16 3.1199 10.96 1.9199C9.76001 0.639936 8.15998 0 6.47999 0ZM9.76001 9.83998C8.87998 10.72 7.67999 11.28 6.40002 11.2C5.20002 11.2 3.92006 10.72 3.04003 9.83998C2.08003 8.95995 1.60003 7.67999 1.60003 6.40002C1.60003 5.12005 2.08003 3.92005 3.04003 2.96006C3.92006 2.08003 5.12005 1.60003 6.47999 1.60003C7.67999 1.60003 8.87998 2.08003 9.76001 2.96006C10.72 3.92005 11.2 5.12005 11.2 6.40002C11.2 7.67999 10.72 8.95995 9.76001 9.83998Z" fill="#FFFF56"/>
<path d="M9.59998 14.4H3.11999C1.84003 14.4 0.799967 15.4399 0.799967 16.8V44.7999C0.799967 46.0799 1.92 47.1999 3.19996 47.1999H9.59998C10.8799 47.1999 12 46.0799 12 44.8799V16.8C12 15.5199 10.8799 14.4 9.59998 14.4ZM10.3999 44.8799C10.3999 45.2799 9.99992 45.5999 9.59998 45.5999H3.19996C2.79993 45.5999 2.4 45.1999 2.4 44.7999V16.8C2.4 16.3999 2.71996 16 3.11999 16H9.59998C10 16 10.3999 16.4 10.3999 16.8V44.8799Z" fill="#FFFF56"/>
<path d="M36.7999 13.5999H35.1199C31.9999 13.5999 29.0399 14.9599 27.1199 17.1199V15.9999C27.1199 15.1999 26.32 14.3999 25.5199 14.3999H17.52C16.8 14.3999 15.9199 15.0399 15.9199 15.9198V45.7598C15.9199 46.6398 16.8 47.1997 17.52 47.1997H26.32C27.04 47.1997 27.92 46.6398 27.92 45.7598V28.4798C27.92 25.8398 29.84 23.7598 32.32 23.7598C33.5999 23.7598 34.7999 24.2398 35.68 25.1198C36.4799 25.8398 36.8 26.9598 36.8 28.3998V45.5998C36.8 46.3998 37.6 47.1998 38.4 47.1998H46.4C47.1999 47.1998 48 46.3999 48 45.5998V24.9599C47.9999 18.5599 43.1199 13.5999 36.7999 13.5999ZM46.3999 45.5198L46.3199 45.5998H38.4799L38.3999 28.3999C38.3999 26.4799 37.9199 25.0399 36.88 24C35.68 22.8 34.0799 22.1599 32.3999 22.1599C29.0399 22.2399 26.4 24.96 26.4 28.4799V45.5998H17.5999V15.9999H25.5199L25.5999 16.0799V21.1199L27.8399 18.8799C29.4399 16.6399 32.2398 15.1999 35.1999 15.1999H36.8799C42.2398 15.1999 46.3999 19.5199 46.3999 24.96V45.5198Z" fill="#FFFF56"/>
</svg>
