<svg width="48" height="41" viewBox="0 0 48 41" fill="none" xmlns="http://www.w3.org/2000/svg">
<path d="M47.2588 1.11181C46.6724 0.394774 45.7943 0 44.7857 0C44.2375 0 43.6567 0.115356 43.0598 0.343505L2.42878 15.8536C0.272536 16.6765 -0.0178689 17.9113 0.000807755 18.5742C0.0194844 19.237 0.379469 20.4536 2.57893 21.1534C2.59211 21.1574 2.60529 21.1614 2.61848 21.1651L11.0464 23.577L15.6043 36.6104C16.2257 38.3872 17.6206 39.491 19.2451 39.491C20.2694 39.491 21.2769 39.0618 22.1587 38.2503L27.3717 33.4504L34.9329 39.5386C34.9336 39.5393 34.9347 39.5397 34.9354 39.5404L35.0072 39.5983C35.0138 39.6034 35.0207 39.6089 35.0273 39.614C35.8678 40.2659 36.7851 40.6101 37.6813 40.6105C39.4321 40.6105 40.8266 39.3145 41.2328 37.3091L47.8901 4.43664C48.1574 3.11718 47.9333 1.93652 47.2588 1.11181ZM13.8659 23.1188L30.126 14.8121L20.0014 25.5703C19.8355 25.7464 19.7179 25.9621 19.6601 26.1968L17.7078 34.1048L13.8659 23.1188ZM20.2533 36.1812C20.1859 36.2431 20.1182 36.2984 20.0504 36.3493L21.8617 29.0134L25.1565 31.6665L20.2533 36.1812ZM45.1336 3.87816L38.4763 36.751C38.4122 37.0656 38.2075 37.7976 37.6813 37.7976C37.4212 37.7976 37.0946 37.6559 36.7602 37.3985L28.1924 30.4998C28.1913 30.4987 28.1898 30.4976 28.1884 30.4969L23.0904 26.3917L37.7318 10.834C38.2005 10.3359 38.243 9.5731 37.8325 9.02598C37.4216 8.47886 36.6771 8.30674 36.0681 8.61802L11.9869 20.9205L3.44428 18.4764L44.0628 2.97106C44.406 2.83996 44.6455 2.81249 44.7857 2.81249C44.8718 2.81249 45.0249 2.82275 45.0816 2.89269C45.1563 2.98388 45.2516 3.29479 45.1336 3.87816Z" fill="#FFFF56"/>
</svg>
