<svg width="42" height="42" viewBox="0 0 42 42" fill="none" xmlns="http://www.w3.org/2000/svg">
<path d="M21 0C9.42012 0 0 9.42012 0 21C0 24.9504 1.09765 28.7853 3.17988 32.1155C2.35038 35.0215 0.852115 40.5187 0.835962 40.576C0.758423 40.8603 0.841615 41.164 1.05404 41.3684C1.26646 41.5727 1.57338 41.6454 1.85285 41.5598L10.1769 38.9994C13.4376 40.9637 17.1715 42 21 42C32.5799 42 42 32.5799 42 21C42 9.42012 32.5799 0 21 0ZM21 40.3846C17.35 40.3846 13.7946 39.3645 10.7173 37.4357C10.5872 37.3542 10.4378 37.313 10.2884 37.313C10.2084 37.313 10.1285 37.3251 10.0509 37.3485L2.7825 39.5858C3.31638 37.6369 4.27592 34.1508 4.83242 32.2116C4.89704 31.987 4.86069 31.7447 4.73388 31.5485C2.69365 28.409 1.61538 24.7614 1.61538 21C1.61538 10.3118 10.3118 1.61538 21 1.61538C31.6882 1.61538 40.3846 10.3118 40.3846 21C40.3846 31.6882 31.6882 40.3846 21 40.3846Z" fill="#FFFF56"/>
<path d="M34.7187 25.948C33.2277 25.1201 31.958 24.2898 31.0316 23.684C30.324 23.222 29.8128 22.8884 29.438 22.7002C28.3904 22.1776 27.5964 22.5468 27.2944 22.8521C27.2564 22.89 27.2225 22.9312 27.1934 22.9748C26.1054 24.6072 24.6847 26.1684 24.2688 26.2524C23.7882 26.1773 21.5388 24.8988 19.3031 23.037C17.0205 21.1349 15.5844 19.3136 15.3736 18.0729C16.838 16.5658 17.3654 15.6176 17.3654 14.5385C17.3654 13.4263 14.7711 8.78287 14.3018 8.3136C13.8309 7.84352 12.7704 7.77003 11.1494 8.0931C10.9935 8.1246 10.8498 8.20133 10.7367 8.3136C10.5404 8.50987 5.94787 13.1921 8.13025 18.8669C10.5259 25.095 16.6748 32.3344 24.5143 33.5104C25.4052 33.6436 26.2403 33.7099 27.0222 33.7099C31.6341 33.7099 34.356 31.3894 35.1225 26.7863C35.1799 26.4495 35.0175 26.1135 34.7187 25.948ZM24.7542 31.9128C16.464 30.6697 11.2423 22.4563 9.63821 18.287C8.04706 14.1516 10.9814 10.4645 11.718 9.63095C12.3173 9.52918 12.9481 9.48637 13.2114 9.52756C13.7615 10.2924 15.666 13.8907 15.75 14.5385C15.75 14.9625 15.6119 15.5529 13.9674 17.1982C13.8156 17.3493 13.7308 17.5544 13.7308 17.7693C13.7308 21.9983 22.6509 27.8654 24.2308 27.8654C25.6047 27.8654 27.3961 25.5562 28.4163 24.0515C28.4752 24.0539 28.5746 24.0741 28.7159 24.1452C29.0067 24.2914 29.5107 24.6201 30.1479 25.0369C30.9896 25.5869 32.1074 26.3171 33.4272 27.0739C32.8279 29.9573 31.1527 32.8739 24.7542 31.9128Z" fill="#FFFF56"/>
</svg>
